# 3ds Max Wavefront OBJ Exporter v0.97b - (c)2007 guruware
# File Created: 24.01.2015 21:36:31

mtllib Zbanana.mtl

#
# object Cylinder001
#

v  -12.2231 45.7553 13.2267
v  -8.1849 45.1823 11.5372
v  -9.2933 49.8987 9.8222
v  -11.5246 50.6784 10.8012
v  -6.5122 44.9450 7.4586
v  -8.3691 49.5757 7.4586
v  -8.1849 45.1823 3.3799
v  -9.2933 49.8987 5.0950
v  -12.2231 45.7553 1.6904
v  -11.5246 50.6784 4.1159
v  -16.2614 46.3284 3.3799
v  -13.7559 51.4581 5.0950
v  -17.9341 46.5657 7.4586
v  -14.6801 51.7811 7.4586
v  -16.2614 46.3284 11.5372
v  -13.7559 51.4581 9.8222
v  83.0964 8.2740 7.4586
v  83.0964 8.7481 6.3140
v  83.0964 9.8927 5.8399
v  83.0964 9.8927 9.0773
v  83.0964 11.0373 6.3140
v  83.0964 11.5114 7.4586
v  83.0964 11.0373 8.6032
v  83.0964 8.7481 8.6032
v  -12.4826 37.8358 15.1126
v  -8.0532 40.9459 12.8708
v  -16.9120 34.7256 12.8708
v  -18.7467 33.4374 7.4586
v  -16.9119 34.7256 2.0463
v  -12.4826 37.8358 -0.1955
v  -8.0532 40.9459 2.0463
v  -6.2185 42.2342 7.4586
v  -10.1503 34.5143 16.9985
v  -4.6296 38.3908 14.2044
v  -15.6711 30.6378 14.2044
v  -17.9578 29.0321 7.4586
v  -15.6711 30.6378 0.7128
v  -10.1503 34.5143 -2.0814
v  -4.6296 38.3908 0.7128
v  -2.3428 39.9965 7.4586
v  3.2912 20.6242 17.6473
v  7.8282 26.2206 14.6631
v  -1.2458 15.0277 14.6631
v  -3.1251 12.7096 7.4586
v  -1.2458 15.0277 0.2541
v  3.2912 20.6242 -2.7301
v  7.8282 26.2206 0.2541
v  9.7075 28.5388 7.4586
v  21.3175 12.9995 18.2960
v  22.7768 20.5225 15.1218
v  19.8583 5.4765 15.1218
v  19.2539 2.3603 7.4586
v  19.8583 5.4765 -0.2047
v  21.3175 12.9995 -3.3789
v  22.7767 20.5225 -0.2047
v  23.3812 23.6386 7.4586
v  41.3189 9.8927 18.9447
v  41.3189 18.0146 15.5805
v  41.3189 1.7707 15.5805
v  41.3189 -1.5935 7.4586
v  41.3189 1.7707 -0.6634
v  41.3189 9.8927 -4.0276
v  41.3189 18.0146 -0.6634
v  41.3189 21.3788 7.4586
v  56.8045 9.8927 17.1195
v  56.8045 16.7240 14.2899
v  56.8045 3.0614 14.2899
v  56.8045 0.2318 7.4586
v  56.8045 3.0614 0.6273
v  56.8045 9.8927 -2.2023
v  56.8045 16.7240 0.6273
v  56.8045 19.5536 7.4586
v  72.2902 9.8927 15.2942
v  72.2902 15.4333 12.9992
v  72.2902 4.3520 12.9992
v  72.2902 2.0570 7.4586
v  72.2902 4.3520 1.9179
v  72.2902 9.8927 -0.3771
v  72.2902 15.4333 1.9179
v  72.2902 17.7283 7.4586
v  77.7207 9.8927 13.4690
v  77.7207 14.1427 11.7086
v  77.7207 5.6427 11.7086
v  77.7207 3.8823 7.4586
v  77.7207 5.6427 3.2086
v  77.7207 9.8927 1.4482
v  77.7207 14.1427 3.2086
v  77.7207 15.9031 7.4586
v  80.6370 9.8927 9.4178
v  80.6370 11.2781 8.8440
v  80.6370 8.5073 8.8440
v  80.6370 7.9334 7.4586
v  80.6370 8.5073 6.0732
v  80.6370 9.8927 5.4993
v  80.6370 11.2781 6.0732
v  80.6370 11.8519 7.4586
# 96 vertices

vn 0.0732 0.4458 0.8921
vn 0.6847 0.3924 0.6142
vn 0.6978 0.3638 0.6171
vn 0.0782 0.4154 0.9063
vn 0.9309 0.3652 0.0050
vn 0.9318 0.3627 0.0118
vn 0.6929 0.3711 -0.6182
vn 0.7035 0.3913 -0.5933
vn 0.0675 0.4228 -0.9037
vn 0.0870 0.4470 -0.8903
vn -0.5805 0.4953 -0.6463
vn -0.5716 0.5108 -0.6421
vn -0.8465 0.5325 0.0024
vn -0.8456 0.5338 0.0049
vn -0.5709 0.5074 0.6454
vn -0.5755 0.4927 0.6528
vn 1.0000 0.0000 0.0000
vn 0.3299 0.9440 -0.0000
vn 0.3299 0.9440 0.0000
vn 0.3500 0.2364 0.9064
vn -0.4557 0.1655 0.8746
vn -0.9381 0.0738 0.3385
vn -0.9381 0.0738 -0.3385
vn -0.4557 0.1655 -0.8746
vn 0.3500 0.2364 -0.9064
vn 0.9261 0.1251 -0.3561
vn 0.9261 0.1251 0.3561
vn 0.0611 0.5249 0.8490
vn -0.5145 0.1208 0.8490
vn -0.9215 -0.1650 0.3516
vn -0.9215 -0.1650 -0.3516
vn -0.5145 0.1208 -0.8490
vn 0.0611 0.5249 -0.8490
vn 0.4681 0.8107 -0.3516
vn 0.4681 0.8107 0.3516
vn 0.2545 0.2921 0.9219
vn -0.2977 -0.2466 0.9223
vn -0.6849 -0.6221 0.3795
vn -0.6849 -0.6221 -0.3795
vn -0.2977 -0.2466 -0.9223
vn 0.2545 0.2921 -0.9219
vn 0.6386 0.6697 -0.3791
vn 0.6386 0.6697 0.3791
vn 0.1210 0.3759 0.9187
vn -0.1795 -0.3496 0.9195
vn -0.3894 -0.8422 0.3729
vn -0.3894 -0.8422 -0.3729
vn -0.1795 -0.3496 -0.9195
vn 0.1210 0.3759 -0.9187
vn 0.3171 0.8725 -0.3719
vn 0.3171 0.8725 0.3719
vn 0.0293 0.3831 0.9232
vn -0.0866 -0.3773 0.9220
vn -0.1642 -0.9103 0.3800
vn -0.1642 -0.9103 -0.3800
vn -0.0866 -0.3773 -0.9220
vn 0.0293 0.3831 -0.9232
vn 0.1151 0.9174 -0.3810
vn 0.1151 0.9174 0.3810
vn 0.1083 0.3804 0.9185
vn 0.1083 -0.3804 0.9185
vn 0.1083 -0.9185 0.3804
vn 0.1083 -0.9185 -0.3804
vn 0.1083 -0.3804 -0.9184
vn 0.1083 0.3804 -0.9184
vn 0.1083 0.9185 -0.3804
vn 0.1083 0.9185 0.3804
vn 0.1083 -0.9184 -0.3804
vn 0.1083 0.3804 -0.9185
vn 0.2966 0.3655 0.8823
vn 0.2966 -0.3655 0.8823
vn 0.2966 -0.8823 0.3655
vn 0.2966 -0.8823 -0.3655
vn 0.2966 -0.3655 -0.8823
vn 0.2966 0.3655 -0.8823
vn 0.2966 0.8823 -0.3655
vn 0.2966 0.8823 0.3655
vn 0.7888 0.2352 0.5678
vn 0.7888 -0.2352 0.5678
vn 0.7888 -0.5678 0.2352
vn 0.7888 -0.5678 -0.2352
vn 0.7888 -0.2352 -0.5678
vn 0.7888 0.2352 -0.5678
vn 0.7888 0.5678 -0.2352
vn 0.7888 0.5678 0.2352
vn 0.1269 0.3796 0.9164
vn 0.1269 -0.3796 0.9164
vn 0.1269 -0.9164 0.3796
vn 0.1269 -0.9164 -0.3796
vn 0.1269 -0.3796 -0.9164
vn 0.1269 0.3796 -0.9164
vn 0.1269 0.9164 -0.3796
vn 0.1269 0.9164 0.3796
# 93 vertex normals

vt 0.5289 0.9260 0.0000
vt 0.5449 0.8818 0.0000
vt 0.5635 0.9002 0.0000
vt 0.5540 0.9257 0.0000
vt 0.5874 0.8619 0.0000
vt 0.5884 0.8888 0.0000
vt 0.6316 0.8780 0.0000
vt 0.6141 0.8980 0.0000
vt 0.6513 0.9206 0.0000
vt 0.6257 0.9225 0.0000
vt 0.6352 0.9647 0.0000
vt 0.6164 0.9482 0.0000
vt 0.5927 0.9844 0.0000
vt 0.5914 0.9598 0.0000
vt 0.5488 0.9684 0.0000
vt 0.5655 0.9505 0.0000
vt 0.0286 0.5429 0.0000
vt 0.0436 0.5491 0.0000
vt 0.0498 0.5641 0.0000
vt 0.0073 0.5641 0.0000
vt 0.0436 0.5791 0.0000
vt 0.0286 0.5854 0.0000
vt 0.0135 0.5791 0.0000
vt 0.0135 0.5491 0.0000
vt 0.0677 0.9817 0.0000
vt 0.0416 0.9617 0.0000
vt 0.0908 0.8988 0.0000
vt 0.1117 0.9476 0.0000
vt 0.0152 0.9469 0.0000
vt 0.0599 0.8563 0.0000
vt 0.0020 0.9401 0.0000
vt 0.0302 0.8341 0.0000
vt 0.6609 0.4746 0.0000
vt 0.6466 0.4796 0.0000
vt 0.6153 0.3835 0.0000
vt 0.6476 0.3658 0.0000
vt 0.6183 0.4904 0.0000
vt 0.5787 0.4211 0.0000
vt 0.5897 0.5065 0.0000
vt 0.5509 0.4664 0.0000
vt 0.5758 0.5210 0.0000
vt 0.5419 0.5029 0.0000
vt 0.0792 0.9980 0.0000
vt 0.1154 0.9848 0.0000
vt 0.1311 0.8646 0.0000
vt 0.1586 0.9232 0.0000
vt 0.0949 0.8129 0.0000
vt 0.0618 0.7830 0.0000
vt 0.5866 0.3356 0.0000
vt 0.6234 0.3108 0.0000
vt 0.5435 0.3814 0.0000
vt 0.5079 0.4355 0.0000
vt 0.4934 0.4810 0.0000
vt 0.1664 0.9701 0.0000
vt 0.2513 0.7870 0.0000
vt 0.2837 0.8684 0.0000
vt 0.2130 0.7101 0.0000
vt 0.1793 0.6557 0.0000
vt 0.4840 0.2172 0.0000
vt 0.5248 0.1685 0.0000
vt 0.4354 0.2877 0.0000
vt 0.3918 0.3637 0.0000
vt 0.3646 0.4240 0.0000
vt 0.3020 0.9316 0.0000
vt 0.3583 0.7329 0.0000
vt 0.3849 0.8265 0.0000
vt 0.3334 0.6404 0.0000
vt 0.3150 0.5744 0.0000
vt 0.3744 0.1314 0.0000
vt 0.4017 0.0690 0.0000
vt 0.3368 0.2191 0.0000
vt 0.2973 0.3081 0.0000
vt 0.2654 0.3711 0.0000
vt 0.4075 0.8930 0.0000
vt 0.4586 0.6920 0.0000
vt 0.4835 0.7822 0.0000
vt 0.4434 0.6018 0.0000
vt 0.4392 0.5404 0.0000
vt 0.2707 0.0777 0.0000
vt 0.2833 0.0180 0.0000
vt 0.2431 0.1645 0.0000
vt 0.2057 0.2505 0.0000
vt 0.1700 0.3059 0.0000
vt 0.5110 0.8417 0.0000
vt 0.5395 0.6632 0.0000
vt 0.5631 0.7384 0.0000
vt 0.5293 0.5873 0.0000
vt 0.5325 0.5375 0.0000
vt 0.1876 0.0513 0.0000
vt 0.1914 0.0020 0.0000
vt 0.1669 0.1248 0.0000
vt 0.1329 0.1960 0.0000
vt 0.0979 0.2380 0.0000
vt 0.5917 0.7845 0.0000
vt 0.6165 0.6384 0.0000
vt 0.6340 0.6936 0.0000
vt 0.6100 0.5830 0.0000
vt 0.6164 0.5500 0.0000
vt 0.1083 0.0357 0.0000
vt 0.1066 0.0025 0.0000
vt 0.0941 0.0894 0.0000
vt 0.0689 0.1417 0.0000
vt 0.0412 0.1685 0.0000
vt 0.6575 0.7237 0.0000
vt 0.6568 0.6263 0.0000
vt 0.6689 0.6677 0.0000
vt 0.6508 0.5853 0.0000
vt 0.6564 0.5616 0.0000
vt 0.0675 0.0322 0.0000
vt 0.0653 0.0082 0.0000
vt 0.0558 0.0718 0.0000
vt 0.0379 0.1111 0.0000
vt 0.0170 0.1303 0.0000
vt 0.6868 0.6894 0.0000
vt 0.6888 0.6174 0.0000
vt 0.6983 0.6414 0.0000
vt 0.6891 0.5925 0.0000
vt 0.6919 0.5807 0.0000
vt 0.0285 0.0339 0.0000
vt 0.0274 0.0219 0.0000
vt 0.0253 0.0585 0.0000
vt 0.0125 0.0810 0.0000
vt 0.0020 0.0904 0.0000
vt 0.7073 0.6521 0.0000
vt 0.0098 0.5829 0.0000
vt 0.0020 0.5641 0.0000
vt 0.0098 0.5453 0.0000
vt 0.0286 0.5375 0.0000
vt 0.0474 0.5453 0.0000
vt 0.0552 0.5641 0.0000
vt 0.0474 0.5829 0.0000
vt 0.0286 0.5907 0.0000
# 132 texture coords

g Cylinder001
usemtl UnwrapChecker
s 8
f 1/1/1 2/2/2 3/3/3 4/4/4 
f 2/2/2 5/5/5 6/6/6 3/3/3 
f 5/5/5 7/7/7 8/8/8 6/6/6 
f 7/7/7 9/9/9 10/10/10 8/8/8 
f 9/9/9 11/11/11 12/12/12 10/10/10 
f 11/11/11 13/13/13 14/14/14 12/12/12 
f 13/13/13 15/15/15 16/16/16 14/14/14 
f 15/15/15 1/1/1 4/4/4 16/16/16 
s 1
f 17/17/17 18/18/17 19/19/17 20/20/17 
f 19/19/17 21/21/17 22/22/17 20/20/17 
f 22/22/17 23/23/17 20/20/17 
f 24/24/17 17/17/17 20/20/17 
f 3/3/18 6/6/18 8/8/19 16/16/18 
f 8/8/19 10/10/18 12/12/19 16/16/18 
f 12/12/19 14/14/19 16/16/18 
f 4/4/18 3/3/18 16/16/18 
s off
f 2/25/20 1/26/20 25/27/20 26/28/20 
f 1/26/21 15/29/21 27/30/21 25/27/21 
f 15/29/22 13/31/22 28/32/22 27/30/22 
f 13/33/23 11/34/23 29/35/23 28/36/23 
f 11/34/24 9/37/24 30/38/24 29/35/24 
f 9/37/25 7/39/25 31/40/25 30/38/25 
f 7/39/26 5/41/26 32/42/26 31/40/26 
f 5/43/27 2/25/27 26/28/27 32/44/27 
f 26/28/28 25/27/28 33/45/28 34/46/28 
f 25/27/29 27/30/29 35/47/29 33/45/29 
f 27/30/30 28/32/30 36/48/30 35/47/30 
f 28/36/31 29/35/31 37/49/31 36/50/31 
f 29/35/32 30/38/32 38/51/32 37/49/32 
f 30/38/33 31/40/33 39/52/33 38/51/33 
f 31/40/34 32/42/34 40/53/34 39/52/34 
f 32/44/35 26/28/35 34/46/35 40/54/35 
f 34/46/36 33/45/36 41/55/36 42/56/36 
f 33/45/37 35/47/37 43/57/37 41/55/37 
f 35/47/38 36/48/38 44/58/38 43/57/38 
f 36/50/39 37/49/39 45/59/39 44/60/39 
f 37/49/40 38/51/40 46/61/40 45/59/40 
f 38/51/41 39/52/41 47/62/41 46/61/41 
f 39/52/42 40/53/42 48/63/42 47/62/42 
f 40/54/43 34/46/43 42/56/43 48/64/43 
f 42/56/44 41/55/44 49/65/44 50/66/44 
f 41/55/45 43/57/45 51/67/45 49/65/45 
f 43/57/46 44/58/46 52/68/46 51/67/46 
f 44/60/47 45/59/47 53/69/47 52/70/47 
f 45/59/48 46/61/48 54/71/48 53/69/48 
f 46/61/49 47/62/49 55/72/49 54/71/49 
f 47/62/50 48/63/50 56/73/50 55/72/50 
f 48/64/51 42/56/51 50/66/51 56/74/51 
f 50/66/52 49/65/52 57/75/52 58/76/52 
f 49/65/53 51/67/53 59/77/53 57/75/53 
f 51/67/54 52/68/54 60/78/54 59/77/54 
f 52/70/55 53/69/55 61/79/55 60/80/55 
f 53/69/56 54/71/56 62/81/56 61/79/56 
f 54/71/57 55/72/57 63/82/57 62/81/57 
f 55/72/58 56/73/58 64/83/58 63/82/58 
f 56/74/59 50/66/59 58/76/59 64/84/59 
f 58/76/60 57/75/60 65/85/60 66/86/60 
f 57/75/61 59/77/61 67/87/61 65/85/61 
f 59/77/62 60/78/62 68/88/62 67/87/62 
f 60/80/63 61/79/63 69/89/63 68/90/63 
f 61/79/64 62/81/64 70/91/64 69/89/64 
f 62/81/65 63/82/65 71/92/65 70/91/65 
f 63/82/66 64/83/66 72/93/66 71/92/66 
f 64/84/67 58/76/67 66/86/67 72/94/67 
f 66/86/60 65/85/60 73/95/60 74/96/60 
f 65/85/61 67/87/61 75/97/61 73/95/61 
f 67/87/62 68/88/62 76/98/62 75/97/62 
f 68/90/68 69/89/68 77/99/68 76/100/68 
f 69/89/64 70/91/64 78/101/64 77/99/64 
f 70/91/69 71/92/69 79/102/69 78/101/69 
f 71/92/66 72/93/66 80/103/66 79/102/66 
f 72/94/67 66/86/67 74/96/67 80/104/67 
f 74/96/70 73/95/70 81/105/70 82/106/70 
f 73/95/71 75/97/71 83/107/71 81/105/71 
f 75/97/72 76/98/72 84/108/72 83/107/72 
f 76/100/73 77/99/73 85/109/73 84/110/73 
f 77/99/74 78/101/74 86/111/74 85/109/74 
f 78/101/75 79/102/75 87/112/75 86/111/75 
f 79/102/76 80/103/76 88/113/76 87/112/76 
f 80/104/77 74/96/77 82/106/77 88/114/77 
f 82/106/78 81/105/78 89/115/78 90/116/78 
f 81/105/79 83/107/79 91/117/79 89/115/79 
f 83/107/80 84/108/80 92/118/80 91/117/80 
f 84/110/81 85/109/81 93/119/81 92/120/81 
f 85/109/82 86/111/82 94/121/82 93/119/82 
f 86/111/83 87/112/83 95/122/83 94/121/83 
f 87/112/84 88/113/84 96/123/84 95/122/84 
f 88/114/85 82/106/85 90/116/85 96/124/85 
f 90/125/86 89/126/86 20/20/86 23/23/86 
f 89/126/87 91/127/87 24/24/87 20/20/87 
f 91/127/88 92/128/88 17/17/88 24/24/88 
f 92/128/89 93/129/89 18/18/89 17/17/89 
f 93/129/90 94/130/90 19/19/90 18/18/90 
f 94/130/91 95/131/91 21/21/91 19/19/91 
f 95/131/92 96/132/92 22/22/92 21/21/92 
f 96/132/93 90/125/93 23/23/93 22/22/93 
# 92 polygons - 4 triangles

